<?xml version="1.0" encoding="utf-8"?>
<!-- Generator: Adobe Illustrator 21.1.0, SVG Export Plug-In . SVG Version: 6.00 Build 0)  -->
<svg version="1.1" id="Layer_1" xmlns="http://www.w3.org/2000/svg" xmlns:xlink="http://www.w3.org/1999/xlink" x="0px" y="0px"
	 viewBox="0 0 260 260" style="enable-background:new 0 0 260 260;" xml:space="preserve">
<style type="text/css">
	.st0{fill:#764ABC;}
</style>
<g>
	<path class="st0" d="M163.9,142c6.8-3.3,9.9-11.3,7-18.5s-11.1-10.8-18.4-8.1l-0.5,0.2c-7.4,3-10.9,11.4-7.9,18.8
		c1.6,3.6,4.2,6.2,7.1,7.5c-2.4,19.3-10.6,35.7-25.9,52.5c-10.4,11.5-22.9,18.8-36.8,21.9c-11.4,2.6-21.6,0.7-29.9-5.3
		c-12.1-9-17.5-21.6-15.7-36.9c1.3-10.9,6-20.3,9.4-25.3c-2.1-2.9-5.5-7.6-7.7-11.2c-25.9,38.3-9.7,71.3,6.8,83.7
		c12.4,9.2,31.4,10.8,49.3,4.3c4.9-1.8,9.5-4,13.9-7C143.8,201.3,160.6,174.3,163.9,142z"/>
	<path class="st0" d="M195.6,96.4c-26.3-14.9-57.8-16.9-88.8-5.6l-3.8,1.4c-3.7-3.5-9.4-4.8-14.5-2.9L88,89.5
		c-7.4,3-10.9,11.4-7.9,18.8c2.9,7.1,11.1,10.8,18.4,8.1l0.4-0.1c5.3-2.2,8.6-7.3,8.8-12.6l4.3-1.6c18.4-6.7,37.8-7.7,57.4-3
		c15,3.6,27.6,10.8,37,21.6c7.8,8.6,11.2,18.7,9.9,28.7c-2.1,15.3-11,26.6-26,32c-9.7,3.5-19.9,4-25.6,3.6c-1.7,3.4-5.2,9-7.7,12.7
		c12.2,1.1,23.8-0.1,34-3.9c23.3-8.5,35.8-27.6,37.7-42.9C230.7,134.5,221.3,110.5,195.6,96.4z"/>
	<path class="st0" d="M84.9,175.4c2.9,7.1,11.1,10.8,18.4,8.1l0.5-0.2c7.4-3,10.9-11.4,7.9-18.8c-2.9-7.1-11.1-10.8-18.4-8.1
		l-0.5,0.2c-0.5,0.2-1.2,0.4-1.6,0.9c-15.9-12.8-26.6-29.3-32.2-49.3c-4.4-14.9-4.1-29.3,0.6-42.8C63.4,53.9,75.4,44.6,84.5,41
		c25.6-9.8,48.1,18.1,53.4,30.8c3.5-0.4,9.3-0.6,13.5-0.7c-17.2-38.3-48.9-49.9-72.2-41.4c-21.8,7.9-36.2,31-35.8,57.2
		c0.1,35.1,18.3,62.3,40.4,80.9C83.4,169.9,83.7,172.9,84.9,175.4z"/>
</g>
</svg>
